<?xml version="1.0" encoding="utf-8"?>
<!-- Generator: Adobe Illustrator 22.0.0, SVG Export Plug-In . SVG Version: 6.00 Build 0)  -->
<svg version="1.1" id="Layer_1" xmlns="http://www.w3.org/2000/svg" xmlns:xlink="http://www.w3.org/1999/xlink" x="0px" y="0px"
	 viewBox="0 0 255.2 79" style="enable-background:new 0 0 255.2 79;" xml:space="preserve" wdth="129" height="40">
<style type="text/css">
	.st0{fill:#FFFFFF;}
</style>
<g>
	<path class="st0" d="M63.2,59l-25,11.6V34.8l0,0l24.7-11.6v9.4h6.7V17.9c0-1.1-0.5-2.2-1.6-2.7L36.8,0.4c-1.3-0.5-2.7-0.5-4,0
		L1.6,15.2C0.5,15.7,0,16.5,0,17.9v43.5c0,1.1,0.5,2.2,1.6,2.7l31.2,14.5c1.3,0.5,2.7,0.5,4,0L68,64.1c1.1-0.5,1.6-1.3,1.6-2.7V49.1
		h-6.5V59z M31.4,70.8L6.7,59V23.3l24.7,11.6l0,0V70.8z M35.8,28.6l-0.8,0.5l-1.1-0.5L11.3,18.1l23.4-11l23.4,11L35.8,28.6z"/>
	<path class="st0" d="M155.9,59l-25,11.6V34.8l0,0l24.7-11.6v9.4h7V17.9c0-1.1-0.5-2.2-1.6-2.7L129.8,0.4c-1.3-0.5-2.7-0.5-4,0
		L94.6,15.2c-1.1,0.5-1.6,1.3-1.6,2.7v14.8h6.7v-9.4l24.7,11.6l0,0v35.8L99.5,59v-9.9h-6.7v12.4c0,1.1,0.5,2.2,1.6,2.7l31.2,14.5
		c1.3,0.5,2.7,0.5,4,0l31.2-14.5c1.1-0.5,1.6-1.3,1.6-2.7V49.1h-6.7V59H155.9z M128.5,28.6l-0.8,0.5l-1.1-0.5l-22.3-10.5l23.4-11
		l23.4,11L128.5,28.6z"/>
	<path class="st0" d="M253.7,15.2L222.6,0.4c-1.3-0.5-2.7-0.5-4,0l-31.2,14.8c-1.1,0.5-1.6,1.3-1.6,2.7v14.8h6.5v-9.4l24.7,11.6l0,0
		v35.8L192.2,59v-9.9h-6.7v12.4c0,1.1,0.5,2.2,1.6,2.7l31.2,14.5c1.3,0.5,2.7,0.5,4,0l31.2-14.5c1.1-0.5,1.6-1.3,1.6-2.7V17.9
		C255.4,16.8,254.8,15.7,253.7,15.2z M221.5,28.6l-0.8,0.5l-1.1-0.5L197,18.1l23.4-11l23.4,11L221.5,28.6z M248.6,59l-25,11.6V34.8
		l0,0l24.7-11.6V59H248.6z"/>
	<path class="st0" d="M53.8,41c0,1.9,1.6,3.2,3.2,3.2h48.4c1.9,0,3.2-1.6,3.2-3.2c0-1.9-1.6-3.2-3.2-3.2H57
		C55.4,37.8,53.8,39.1,53.8,41z"/>
	<path class="st0" d="M146.5,41c0,1.9,1.6,3.2,3.2,3.2h48.4c1.9,0,3.2-1.6,3.2-3.2c0-1.9-1.6-3.2-3.2-3.2h-48.4
		C148.1,37.8,146.5,39.1,146.5,41z"/>
</g>
</svg>
